<svg width="955" height="67" fill="none" xmlns="http://www.w3.org/2000/svg"><path d="M11.456 33.632H9.792c-.096 2.08-.96 3.312-3.36 3.312-2.736 0-3.888-2.048-3.888-4.992s1.152-4.944 3.888-4.944c1.488 0 2.928.48 3.232 2.496h1.632c-.528-2.48-1.856-3.744-4.864-3.744-4.672 0-5.52 3.504-5.52 6.192s.976 6.24 5.52 6.24c4.048 0 4.736-2.304 5.024-4.56zm1.831-1.68c0 2.544 1.168 6.24 5.712 6.24 4.512 0 5.712-3.696 5.712-6.24s-1.2-6.192-5.712-6.192-5.712 3.648-5.712 6.192zm5.712-4.944c2.736 0 4.08 2 4.08 4.944s-1.344 4.992-4.08 4.992c-2.736 0-4.08-2.048-4.08-4.992s1.344-4.944 4.08-4.944zM33.289 38l3.52-10.288V38h1.392V25.952h-2.112l-3.264 9.6-3.264-9.6h-2.16V38h1.344V27.712L32.265 38h1.024zm8.471 0h1.44V25.952h-1.44V38zm14.569 0V25.952h-1.44v9.696l-6.56-9.696h-1.584V38h1.44v-9.712L54.76 38h1.568zm14.116-6.096H65.31v1.312h3.648c-.144 2.272-1.84 3.728-4.176 3.728-2.736 0-4.08-2.048-4.08-4.992s1.344-4.944 4.272-4.944c2.064 0 3.408.96 3.568 3.12h1.68c-.4-2.528-2.032-4.368-5.248-4.368-4.864 0-5.952 3.504-5.952 6.192s1.216 6.24 5.76 6.24c2.56 0 3.84-1.296 4.272-2.576V38h1.392v-6.096zm7.923 1.728h-1.44c.096 1.632.624 4.56 4.912 4.56 2.352 0 4.4-1.024 4.4-3.552 0-4.576-7.296-3.088-7.296-5.824 0-1.488 1.2-1.808 2.56-1.808 2.672 0 2.816 1.488 2.864 2.464h1.536c-.096-.96-.544-3.712-4.304-3.712-3.2 0-4.192 1.68-4.192 3.248 0 4.288 7.344 2.368 7.344 5.872 0 1.36-1.424 2.016-2.912 2.016-2.448 0-3.376-1.248-3.472-3.264zm9.7-1.68c0 2.544 1.168 6.24 5.712 6.24 4.512 0 5.712-3.696 5.712-6.24s-1.2-6.192-5.712-6.192-5.712 3.648-5.712 6.192zm5.712-4.944c2.736 0 4.08 2 4.08 4.944s-1.344 4.992-4.08 4.992c-2.736 0-4.08-2.048-4.08-4.992s1.344-4.944 4.08-4.944zm7.538 4.944c0 2.544 1.168 6.24 5.712 6.24 4.512 0 5.712-3.696 5.712-6.24s-1.2-6.192-5.712-6.192-5.712 3.648-5.712 6.192zm5.712-4.944c2.736 0 4.08 2 4.08 4.944s-1.344 4.992-4.08 4.992c-2.736 0-4.08-2.048-4.08-4.992s1.344-4.944 4.08-4.944zM125.016 38V25.952h-1.44v9.696l-6.56-9.696h-1.584V38h1.44v-9.712L123.448 38h1.568zM887.664 38l3.52-10.288V38h1.392V25.952h-2.112l-3.264 9.6-3.264-9.6h-2.16V38h1.344V27.712L886.64 38h1.024zm9.815-3.696h4.848L903.751 38h1.456l-4.608-12.048h-1.312L894.647 38h1.408l1.424-3.696zm.512-1.344l1.92-5.12 1.904 5.12h-3.824zM910.216 38v-5.104l4.832-6.944h-1.808l-3.744 5.696-3.744-5.696h-1.808l4.832 6.944V38h1.44zm17.75-1.344h-5.76c2.064-1.088 5.728-3.12 5.728-6.976 0-1.568-.848-3.92-3.824-3.92-3.264 0-3.808 2.768-3.712 4.368h1.488c-.096-1.984.528-3.12 2.32-3.12 2.032 0 2.288 1.92 2.288 2.72 0 2.736-2.32 4.88-6.064 6.624V38h7.536v-1.344zm1.82-4.704c0 2.544 1.312 6.24 4.704 6.24 3.408 0 4.704-3.696 4.704-6.24s-1.296-6.192-4.704-6.192c-3.392 0-4.704 3.648-4.704 6.192zm4.704-4.944c2.128 0 3.072 2.144 3.072 4.944s-.944 4.992-3.072 4.992-3.072-2.192-3.072-4.992.944-4.944 3.072-4.944zm14.117 9.648h-5.76c2.064-1.088 5.728-3.12 5.728-6.976 0-1.568-.848-3.92-3.824-3.92-3.264 0-3.808 2.768-3.712 4.368h1.488c-.096-1.984.528-3.12 2.32-3.12 2.032 0 2.288 1.92 2.288 2.72 0 2.736-2.32 4.88-6.064 6.624V38h7.536v-1.344zM953.163 38V25.952h-1.056c-.144 1.328-1.152 1.552-2.352 1.552v1.152c.992 0 1.632-.096 1.968-.272V38h1.44z" fill="#fff"/><path d="M218.525 1.825c5.153 0 10.432 3.525 9.229 11.66l-1.876 12.736a9.546 9.546 0 01-5.144 7.067 6.595 6.595 0 013.097 7.059l-2.029 13.848c-1.203 8.17-7.55 11.66-12.704 11.66H196l9.427-64.03h13.098zm-8.69 52.773c1.14 0 1.939-.717 2.271-2.565l1.472-10.332c.27-1.839-.269-2.556-1.4-2.556h-1.535l-2.272 15.453h1.464zm4.013-26.826c1.14 0 1.939-.726 2.136-2.484l1.41-9.534c.269-1.794-.269-2.556-1.41-2.556h-1.535l-2.137 14.574h1.536zm36.117 26.853h10.315l-1.67 11.4h-21.106l9.444-64.218h10.774l-7.757 52.818zm34.546-.708a1.7 1.7 0 001.796 1.928 2.45 2.45 0 002.424-1.928l7.64-52.11h9.875l-7.775 52.415c-.897 6.502-6.625 12.556-13.664 12.556-7.038 0-11.527-6.099-10.584-12.556l7.676-52.415h10.315l-7.703 52.11zm58.211-41.518h-10.378l-2.146 14.61h6.833l-1.679 11.4h-6.832l-2.415 16.216h10.387l-1.67 11.4h-21.107l9.445-64.218h21.107L342.722 12.4zm55.276 53.626h-6.428l-.754-2.243a11.455 11.455 0 01-7.236 3.05c-6.769 0-10.594-5.381-9.517-12.557l5.98-40.674c.897-6.502 7.37-12.556 14.364-12.556a10.914 10.914 0 018.391 3.765 10.888 10.888 0 012.526 8.836l-1.939 13.122H392.8l1.939-12.844a1.717 1.717 0 00-.47-1.418 1.716 1.716 0 00-1.406-.51 2.463 2.463 0 00-2.415 1.928l-6.024 40.89a1.714 1.714 0 001.795 1.919 2.542 2.542 0 002.487-1.92l1.544-10.843h-2.127l1.409-9.31h13.045l-4.579 31.365zm40.13-64.218c5.162 0 10.863 3.525 9.651 11.713l-2.074 14.35c-.466 3.05-2.549 5.382-5.566 7.068 2.487 1.686 4.094 4.01 3.69 7.068l-1.948 13.256a54.764 54.764 0 00-.269 10.763h-10.397a35.475 35.475 0 01.135-9.956l2.002-13.453c.207-1.364-.395-2.485-1.867-2.485h-1.41l-3.806 25.894h-10.72l9.454-64.218h13.125zm-4.955 27.687c1.14 0 1.948-.717 2.208-2.565l1.616-11.157c.26-1.848-.269-2.574-1.409-2.574h-1.545l-2.415 16.296h1.545zm53.56-17.095h-10.387l-2.145 14.61h6.841l-1.679 11.4h-6.85l-2.415 16.216h10.405l-1.706 11.4h-21.079l9.453-64.218h21.107L486.733 12.4zm37.042 0h-10.387l-2.145 14.61h6.832l-1.679 11.4h-6.832l-2.415 16.216h10.387l-1.67 11.4H494.76l9.444-64.218h21.107L523.775 12.4zm35.821-10.592h8.978l-9.427 64.218h-9.381l-4.22-32.674-4.803 32.674h-8.977l9.426-64.218h9.777l3.752 33.275 4.875-33.275zM628.5 34.795l8.574-32.988h9.714l-17.749 64.218h-8.583l.898-28.7-7.595 28.7h-9.05l1.212-64.218h10.585l-1.544 32.988 8.08-32.988h7.101L628.5 34.795zm46.909 18.62c-.898 6.502-7.578 13.453-14.679 13.453s-11.725-6.906-10.719-13.454l5.799-38.96C656.744 7.905 663.378 1 670.48 1c7.101 0 11.725 6.906 10.719 13.453l-5.692 39.006-.098-.045zm-4.83-39.464a1.695 1.695 0 00-1.796-1.928 2.455 2.455 0 00-2.352 1.901l-5.934 39.993a1.698 1.698 0 001.795 1.928 2.436 2.436 0 002.424-1.928l5.836-39.975.027.009zm43.137-12.144c5.163 0 10.854 3.525 9.651 11.713l-2.082 14.387c-.467 3.05-2.541 5.381-5.558 7.067 2.478 1.686 4.085 4.01 3.681 7.068l-1.939 13.22a54.154 54.154 0 00-.269 10.763h-10.37a35.475 35.475 0 01.135-9.956l2.011-13.453c.207-1.364-.404-2.485-1.876-2.485h-1.41l-3.833 25.894h-10.72l9.409-64.218h13.17zm-4.955 27.687c1.14 0 1.939-.717 2.208-2.565l1.607-11.157c.27-1.848-.269-2.574-1.409-2.574h-1.535l-2.415 16.296h1.544zm50.724-27.687h10.252l-11.195 29.454 2.882 34.764h-10.72l-.897-23.445-3.286 8.189-2.281 15.247h-10.773l9.4-64.209h10.773l-4.291 28.979 10.136-28.979zm43.101 49.365c-1.212 8.189-7.182 15.65-15.342 15.65-8.161 0-12.937-6.098-11.995-12.556l1.275-8.592h10.046l-.897 6.027c-.342 2.404.601 4.17 2.693 4.17s3.151-1.362 3.591-4.17c.799-5.3-1.481-9.632-5.297-15.175-4.022-5.776-6.284-12.557-5.162-19.83C782.683 7.905 788.527 1 797.092 1a10.782 10.782 0 018.351 3.772 10.76 10.76 0 012.422 8.83l-1.265 8.591h-10.109l1.014-6.502c.332-2.251-.539-3.695-2.011-3.695s-3.016 1.444-3.286 3.695c-.736 4.816.135 6.422 4.426 13.965 3.412 6.018 7.371 12.368 6.024 21.525l-.072-.009z" fill="#000"/></svg>