<svg width="955" height="121" fill="none" xmlns="http://www.w3.org/2000/svg"><path d="M11.456 32.632H9.792c-.096 2.08-.96 3.312-3.36 3.312-2.736 0-3.888-2.048-3.888-4.992s1.152-4.944 3.888-4.944c1.488 0 2.928.48 3.232 2.496h1.632c-.528-2.48-1.856-3.744-4.864-3.744-4.672 0-5.52 3.504-5.52 6.192s.976 6.24 5.52 6.24c4.048 0 4.736-2.304 5.024-4.56zm1.831-1.68c0 2.544 1.168 6.24 5.712 6.24 4.512 0 5.712-3.696 5.712-6.24s-1.2-6.192-5.712-6.192-5.712 3.648-5.712 6.192zm5.712-4.944c2.736 0 4.08 2 4.08 4.944s-1.344 4.992-4.08 4.992c-2.736 0-4.08-2.048-4.08-4.992s1.344-4.944 4.08-4.944zM33.289 37l3.52-10.288V37h1.392V24.952h-2.112l-3.264 9.6-3.264-9.6h-2.16V37h1.344V26.712L32.265 37h1.024zm8.471 0h1.44V24.952h-1.44V37zm14.569 0V24.952h-1.44v9.696l-6.56-9.696h-1.584V37h1.44v-9.712L54.76 37h1.568zm14.116-6.096H65.31v1.312h3.648c-.144 2.272-1.84 3.728-4.176 3.728-2.736 0-4.08-2.048-4.08-4.992s1.344-4.944 4.272-4.944c2.064 0 3.408.96 3.568 3.12h1.68c-.4-2.528-2.032-4.368-5.248-4.368-4.864 0-5.952 3.504-5.952 6.192s1.216 6.24 5.76 6.24c2.56 0 3.84-1.296 4.272-2.576V37h1.392v-6.096zm7.923 1.728h-1.44c.096 1.632.624 4.56 4.912 4.56 2.352 0 4.4-1.024 4.4-3.552 0-4.576-7.296-3.088-7.296-5.824 0-1.488 1.2-1.808 2.56-1.808 2.672 0 2.816 1.488 2.864 2.464h1.536c-.096-.96-.544-3.712-4.304-3.712-3.2 0-4.192 1.68-4.192 3.248 0 4.288 7.344 2.368 7.344 5.872 0 1.36-1.424 2.016-2.912 2.016-2.448 0-3.376-1.248-3.472-3.264zm9.7-1.68c0 2.544 1.168 6.24 5.712 6.24 4.512 0 5.712-3.696 5.712-6.24s-1.2-6.192-5.712-6.192-5.712 3.648-5.712 6.192zm5.712-4.944c2.736 0 4.08 2 4.08 4.944s-1.344 4.992-4.08 4.992c-2.736 0-4.08-2.048-4.08-4.992s1.344-4.944 4.08-4.944zm7.538 4.944c0 2.544 1.168 6.24 5.712 6.24 4.512 0 5.712-3.696 5.712-6.24s-1.2-6.192-5.712-6.192-5.712 3.648-5.712 6.192zm5.712-4.944c2.736 0 4.08 2 4.08 4.944s-1.344 4.992-4.08 4.992c-2.736 0-4.08-2.048-4.08-4.992s1.344-4.944 4.08-4.944zM125.016 37V24.952h-1.44v9.696l-6.56-9.696h-1.584V37h1.44v-9.712L123.448 37h1.568zM887.664 37l3.52-10.288V37h1.392V24.952h-2.112l-3.264 9.6-3.264-9.6h-2.16V37h1.344V26.712L886.64 37h1.024zm9.815-3.696h4.848L903.751 37h1.456l-4.608-12.048h-1.312L894.647 37h1.408l1.424-3.696zm.512-1.344l1.92-5.12 1.904 5.12h-3.824zM910.216 37v-5.104l4.832-6.944h-1.808l-3.744 5.696-3.744-5.696h-1.808l4.832 6.944V37h1.44zm17.75-1.344h-5.76c2.064-1.088 5.728-3.12 5.728-6.976 0-1.568-.848-3.92-3.824-3.92-3.264 0-3.808 2.768-3.712 4.368h1.488c-.096-1.984.528-3.12 2.32-3.12 2.032 0 2.288 1.92 2.288 2.72 0 2.736-2.32 4.88-6.064 6.624V37h7.536v-1.344zm1.82-4.704c0 2.544 1.312 6.24 4.704 6.24 3.408 0 4.704-3.696 4.704-6.24s-1.296-6.192-4.704-6.192c-3.392 0-4.704 3.648-4.704 6.192zm4.704-4.944c2.128 0 3.072 2.144 3.072 4.944s-.944 4.992-3.072 4.992-3.072-2.192-3.072-4.992.944-4.944 3.072-4.944zm14.117 9.648h-5.76c2.064-1.088 5.728-3.12 5.728-6.976 0-1.568-.848-3.92-3.824-3.92-3.264 0-3.808 2.768-3.712 4.368h1.488c-.096-1.984.528-3.12 2.32-3.12 2.032 0 2.288 1.92 2.288 2.72 0 2.736-2.32 4.88-6.064 6.624V37h7.536v-1.344zM953.163 37V24.952h-1.056c-.144 1.328-1.152 1.552-2.352 1.552v1.152c.992 0 1.632-.096 1.968-.272V37h1.44z" fill="#fff"/><g clip-path="url(#clip0)"><path d="M218.525.825c5.153 0 10.432 3.525 9.229 11.66l-1.876 12.736a9.546 9.546 0 01-5.144 7.067 6.595 6.595 0 013.097 7.059l-2.029 13.848c-1.203 8.17-7.55 11.66-12.704 11.66H196l9.427-64.03h13.098zm-8.69 52.773c1.14 0 1.939-.717 2.271-2.565l1.472-10.332c.27-1.839-.269-2.556-1.4-2.556h-1.535l-2.272 15.453h1.464zm4.013-26.826c1.14 0 1.939-.726 2.136-2.484l1.41-9.534c.269-1.794-.269-2.556-1.41-2.556h-1.535l-2.137 14.574h1.536zm36.117 26.853h10.315l-1.67 11.4h-21.106L246.948.807h10.774l-7.757 52.818zm34.546-.708a1.7 1.7 0 001.796 1.928 2.45 2.45 0 002.424-1.928l7.64-52.11h9.875l-7.775 52.415c-.897 6.502-6.625 12.556-13.664 12.556-7.038 0-11.527-6.099-10.584-12.556L281.899.807h10.315l-7.703 52.11zm58.211-41.518h-10.378l-2.146 14.61h6.833l-1.679 11.4h-6.832l-2.415 16.216h10.387l-1.67 11.4h-21.107L323.16.807h21.107L342.722 11.4zm55.276 53.626h-6.428l-.754-2.243a11.455 11.455 0 01-7.236 3.05c-6.769 0-10.594-5.381-9.517-12.557l5.98-40.674C380.94 6.1 387.413.045 394.407.045a10.914 10.914 0 018.391 3.765 10.888 10.888 0 012.526 8.836l-1.939 13.122H392.8l1.939-12.844a1.717 1.717 0 00-.47-1.418 1.716 1.716 0 00-1.406-.51 2.463 2.463 0 00-2.415 1.928l-6.024 40.89a1.714 1.714 0 001.795 1.919 2.542 2.542 0 002.487-1.92l1.544-10.843h-2.127l1.409-9.31h13.045l-4.579 31.365zM438.128.807c5.162 0 10.863 3.525 9.651 11.713l-2.074 14.35c-.466 3.05-2.549 5.382-5.566 7.068 2.487 1.686 4.094 4.01 3.69 7.068l-1.948 13.256a54.764 54.764 0 00-.269 10.763h-10.397a35.475 35.475 0 01.135-9.956l2.002-13.453c.207-1.364-.395-2.485-1.867-2.485h-1.41l-3.806 25.894h-10.72L425.003.807h13.125zm-4.955 27.687c1.14 0 1.948-.717 2.208-2.565l1.616-11.157c.26-1.848-.269-2.574-1.409-2.574h-1.545l-2.415 16.296h1.545zm53.56-17.095h-10.387l-2.145 14.61h6.841l-1.679 11.4h-6.85l-2.415 16.216h10.405l-1.706 11.4h-21.079L467.171.807h21.107L486.733 11.4zm37.042 0h-10.387l-2.145 14.61h6.832l-1.679 11.4h-6.832l-2.415 16.216h10.387l-1.67 11.4H494.76L504.204.807h21.107L523.775 11.4zM559.596.807h8.978l-9.426 64.218h-9.382l-4.22-32.674-4.803 32.674h-8.977L541.192.807h9.777l3.753 33.275L559.596.807zM628.5 33.795L637.074.807h9.714l-17.749 64.218h-8.583l.898-28.7-7.595 28.7h-9.05L605.921.807h10.585l-1.544 32.988 8.08-32.988h7.101L628.5 33.795zm46.909 18.62c-.898 6.502-7.578 13.453-14.679 13.453s-11.725-6.906-10.719-13.454l5.799-38.96C656.744 6.905 663.378 0 670.48 0c7.101 0 11.725 6.906 10.719 13.453l-5.692 39.006-.098-.045zm-4.83-39.464a1.695 1.695 0 00-1.796-1.928 2.455 2.455 0 00-2.352 1.901l-5.934 39.993a1.698 1.698 0 001.795 1.928 2.436 2.436 0 002.424-1.928l5.836-39.975.027.009zM713.716.807c5.163 0 10.854 3.525 9.651 11.713l-2.082 14.387c-.467 3.05-2.541 5.381-5.558 7.067 2.478 1.686 4.085 4.01 3.681 7.068l-1.939 13.22a54.154 54.154 0 00-.269 10.763h-10.37a35.475 35.475 0 01.135-9.956l2.011-13.453c.207-1.364-.404-2.485-1.876-2.485h-1.41l-3.833 25.894h-10.72L700.546.807h13.17zm-4.955 27.687c1.14 0 1.939-.717 2.208-2.565l1.607-11.157c.27-1.848-.269-2.574-1.409-2.574h-1.535l-2.415 16.296h1.544zM759.485.807h10.252l-11.195 29.454 2.882 34.764h-10.72l-.897-23.445-3.286 8.189-2.281 15.247h-10.773l9.4-64.209h10.773l-4.291 28.979L759.485.807zm43.101 49.365c-1.212 8.189-7.182 15.65-15.342 15.65-8.161 0-12.937-6.098-11.995-12.556l1.275-8.592h10.046l-.897 6.027c-.342 2.404.601 4.17 2.693 4.17s3.151-1.362 3.591-4.17c.799-5.3-1.481-9.632-5.297-15.175-4.022-5.776-6.284-12.557-5.162-19.83C782.683 6.905 788.527 0 797.092 0a10.782 10.782 0 018.351 3.772 10.76 10.76 0 012.422 8.83l-1.265 8.591h-10.109l1.014-6.502c.332-2.251-.539-3.695-2.011-3.695s-3.016 1.444-3.286 3.695c-.736 4.816.135 6.422 4.426 13.965 3.412 6.018 7.371 12.368 6.024 21.525l-.072-.009zM426.089 93.797h-3.286c-.806.014-1.612-.019-2.415-.099h-.377v1.3h.332c3.403 0 3.403 0 3.403 2.692v8.43c-.003.06-.003.12 0 .18v2.242c0 .825 0 1.498.045 2.018v1.202c-2.927-3.866-5.037-6.458-6.329-8.072-.62-.763-1.114-1.372-1.23-1.543a13.263 13.263 0 00-1.733-2.323c-1.05-1.327-2.63-3.318-4.659-5.955l-.108-.144h-.18c-1.409.099-2.478.099-3.259.099h-2.944c-.62 0-1.257 0-1.966-.063h-.369v1.256h1.096c1.508 0 2.154.18 2.693 1.202v14.52c.004.075.004.15 0 .225v5.731c0 2.421-.278 2.69-2.981 2.69h-.754v1.175h.35c1.859-.062 3.295-.098 4.175-.098 1.042 0 2.424 0 4.103.098h.35v-1.273h-.898c-2.334 0-2.917-.233-2.917-2.045V97.869c6.437 7.938 10.701 13.453 16.527 21.104l1.572 2.054h.834v-.314c0-.323 0-.565.054-.718.054-.152 0-.206 0-.242V111.708a3.717 3.717 0 000-.395 6.745 6.745 0 010-.636V97.232c0-2.215 0-2.215 3.43-2.251h.332v-1.247h-.359c-.997.063-1.894.063-2.532.063zm25.596 20.288c-.099 2.224-.225 3.731-1.042 4.305-.386.269-1.795.897-6.545.897h-1.66c-3.152 0-3.152 0-3.152-1.417V112.488c0-.789-.045-1.856-.045-3.228v-1.597h1.06c5.09.117 6.006.144 6.006 3.462v.619h1.059v-1.238c0-1.3-.045-2.412-.045-3.318 0-.906 0-2.009.045-3.31v-1.238h-.978v.332c0 2.942-.62 3.534-3.672 3.534h-1.266c-.476 0-1.122.072-1.948.072h-.207v-.117a.75.75 0 000-.134c0-.897 0-1.525-.054-1.911V95.86c0-.897 0-.897 1.114-.897 7.406 0 8.735.296 8.825 4.027v.323h1.041v-5.256l-.574-.269h-19.491v1.157h.332c3.178 0 3.43.162 3.43 2.189v19.059c0 2.861-.063 3.076-2.981 3.076h-.781v1.157h16.77c.269.018.539.018.808 0 .198-.014.396-.014.593 0h4.022l.314-6.682h-1.059l.081.341zm33.316-20.288H482.2c-.701 0-1.509 0-2.361-.063h-.359v1.256h1.167c1.876 0 2.011.242 2.011.628a70.109 70.109 0 01-2.496 7.112c-1.024 2.745-2.29 6.108-3.807 10.288-1.068-2.951-2.549-7.176-4.3-12.207.458-1.112.79-2.036 1.068-2.78.898-2.52 1.114-3.041 2.855-3.041h1.688v-1.238h-.35c-1.796.072-3.654.072-5.45.072h-11.24c-2.397 0-5.117 0-8.322-.072h-.35v1.229h1.373c1.383 0 1.67.233 2.173 1.74.431 1.3.898 2.34 1.167 3.031.153.386.323.781.341.897.386 1.413.86 2.8 1.419 4.153 1.167 3.238 3.124 8.646 5.647 16.054l.081.225h.897l2.55-7.176c.898-2.636 1.58-4.484 1.939-5.471 1.464 4.072 2.972 8.27 4.39 12.458l.081.233h.898l.081-.224c1.795-4.843 2.998-8.278 3.725-10.323.44-1.238.737-2.054.799-2.197.575-1.364 1.069-2.799 1.554-4.189.377-1.112.745-2.161 1.113-3.067a47.766 47.766 0 001.041-2.843c.781-2.332 1.078-3.202 3.035-3.202h1.517v-1.256h-.359c-.835-.027-1.67-.027-2.415-.027zm-12.228 1.48a11.056 11.056 0 01-.628 1.794c-.207.529-.449 1.157-.718 1.901-.611-1.794-1.15-3.435-1.159-3.677-.009-.242 0-.359.458-.359h1.419c.628.018.628.135.628.341zm-5.755 6.135c.512 1.471 1.105 3.193 1.796 5.148-.108.395-.754 2.359-2.262 6.368-1.464-4.332-2.694-7.857-3.591-10.584-1.356-3.946-2.263-6.547-2.272-6.897-.009-.35 0-.493 1.078-.493h2.693c.386.18 1.346 2.95 2.558 6.458zm54.594-7.705h-.359c-.961.063-1.796.063-2.613.063h-2.828c-.763 0-1.616 0-2.576-.063h-.36v1.238h.97c2.047 0 2.28.09 2.28.655a63.582 63.582 0 01-2.693 6.771c-.754 1.794-1.661 3.911-2.693 6.395-3.34-7.812-5.539-12.933-5.602-13.453-.063-.52.799-.422 2.63-.422h.341v-1.237h-.359c-1.373.071-2.594.071-3.681.071h-3.995c-1.059 0-2.271 0-3.645-.071h-.35v1.237h1.374c1.741 0 1.921.108 2.451 1.48.61 1.56 1.239 3.095 1.939 4.709.628 1.435 1.26 2.903 1.894 4.404a174.348 174.348 0 002.325 5.381 4.405 4.405 0 000 .43v6.53c0 1.354-.062 1.39-2.154 1.39h-1.796v1.166h.35c2.936-.063 4.947-.063 6.15-.063 1.203 0 3.241 0 6.177.063h.341v-1.094h-1.23c-2.523 0-2.523 0-2.523-1.731V110.165c1.984-4.628 3.196-7.525 3.699-8.717l.072-.171c.332-.762.61-1.435.898-2.036 1.553-3.713 1.795-4.287 3.95-4.287h1.616v-1.247zm12.452-.493c-7.91 0-13.646 6.018-13.646 14.35a14.535 14.535 0 005.306 10.996 14.047 14.047 0 007.927 2.467c7.55 0 13.466-6.207 13.466-14.117.009-8.081-5.359-13.696-13.053-13.696zm-.243 1.157c4.633 0 7.515 4.485 7.515 11.66 0 8.888-2.694 13.785-7.55 13.785-4.283 0-7.515-4.601-7.515-10.718 0-9.928 2.469-14.727 7.55-14.727zm36.755 25.194c-1.347 0-1.867-.7-2.334-3.103-.117-.655-.207-1.265-.296-1.848-.342-2.296-.638-4.278-2.299-6.224a8.376 8.376 0 00-4.013-2.171c4.489-.825 6.482-3.695 6.482-6.422 0-3.587-3.519-6.036-6.67-6.036h-2.694c-.439 0-1.05 0-1.795.063-1.912.08-4.731.197-8.825.08h-.745v1.167h.79c2.98 0 2.98.18 2.98 3.148v7.274c0 .314.054.789.054 1.399 0 .412 0 .771-.045 1.067-.045.296 0 .431 0 .592v5.794c-.011.2-.011.401 0 .601v1.103c0 3.032-.071 3.256-2.953 3.256h-.817v1.166h2.235c1.733 0 3.133-.045 4.184-.045 1.05 0 3.286 0 6.5.063h.341v-1.202h-1.616c-2.325 0-2.532-.26-2.532-3.077V113.269a2.824 2.824 0 010-.368c.026-.211.041-.424.045-.637V107.672a3.169 3.169 0 010-.457 2.217 2.217 0 000-.305v-.323h.377c1.93 0 3.142.287 4.408 1.847a6.91 6.91 0 011.248 3.714c.045.331.081.645.135.896.053.252.071.512.098.817a7.187 7.187 0 002.406 5.291 7.805 7.805 0 004.705 1.525 8.626 8.626 0 003.384-.682l.207-.089v-1.229l-.485.215a5.635 5.635 0 01-2.46.673zm-14.149-16.243a.999.999 0 010-.134v-7.4c0-.96 0-1.04 1.284-1.04 3.591 0 5.647 1.982 5.647 5.435 0 3.731-1.706 5.328-5.71 5.328h-1.221v-2.189zm45.58 15.965c-1.427 0-1.733-.215-2.298-.897L598.56 117l-1.94-2.323a484.466 484.466 0 01-4.004-4.79l-4.74-5.704c-.108-.125-.26-.314-.26-.403 0-.09.054-.117.233-.27l3.142-2.834a63.383 63.383 0 002.353-2.206l2.073-1.937c1.374-1.274 1.931-1.57 4.274-1.57h1.203v-1.291h-.368c-1.132.098-2.11.098-2.981.098h-3.564c-.875.014-1.75-.02-2.622-.099h-.377v1.292h1.5c1.562 0 1.957.072 1.957.368a1.71 1.71 0 01-.656 1.004l-3.106 2.897c-.808.745-1.391 1.265-1.795 1.588l-.422.376-4.489 4.117v-2.484c0-.44 0-.951-.054-1.265V97.412c0-2.44 0-2.44 2.918-2.467h.682v-1.291h-.368c-1.266.098-2.451.098-3.501.098h-4.839c-1.096 0-2.335 0-3.672-.098h-.368v1.264h1.346c2.308 0 2.496 0 2.496 1.875v18.87c0 3.247-.081 3.588-2.361 3.588h-1.481v1.193h.35c3.034-.063 5.054-.063 6.141-.063 1.086 0 3.079 0 5.907.063h.35v-1.157h-1.14c-2.038 0-2.424-.296-2.424-1.875a2.691 2.691 0 000-.475v-9.471l2.415 2.879 2.819 3.39a61.52 61.52 0 014.363 5.444 3.227 3.227 0 01-1.05.081h-1.482v1.166h.35c2.496-.063 4.355-.099 5.692-.099.952 0 2.694 0 5.243.099h.386v-1.139h-.682z" fill="#000"/></g><defs><clipPath id="clip0"><path fill="#fff" transform="translate(196)" d="M0 0h612v121H0z"/></clipPath></defs></svg>