<svg width="326" height="59" fill="none" xmlns="http://www.w3.org/2000/svg"><path d="M20.262 26.413c2.577 0 5.216 1.762 4.615 5.83l-.938 6.367a4.773 4.773 0 01-2.572 3.534 3.297 3.297 0 011.548 3.53l-1.014 6.923c-.602 4.086-3.775 5.83-6.352 5.83H9l4.713-32.014h6.55zm-4.345 26.386c.57 0 .97-.359 1.136-1.282l.736-5.167c.135-.919-.135-1.278-.7-1.278h-.768L15.186 52.8h.731zm2.007-13.413c.57 0 .97-.363 1.068-1.242l.705-4.767c.135-.897-.135-1.278-.705-1.278h-.767l-1.069 7.287h.768zm18.058 13.427h5.158l-.835 5.7H29.752l4.722-32.11h5.387l-3.879 26.41zm17.273-.355a.846.846 0 00.898.965 1.226 1.226 0 001.212-.965l3.82-26.054h4.938L60.236 52.61c-.45 3.251-3.313 6.278-6.832 6.278-3.52 0-5.764-3.05-5.293-6.278l3.838-26.207h5.158l-3.852 26.054zM82.362 31.7h-5.189L76.1 39.005h3.416l-.84 5.7H75.26l-1.208 8.108h5.194l-.835 5.7H67.858l4.722-32.11h10.553l-.772 5.297zM110 58.512h-3.214l-.377-1.12a5.726 5.726 0 01-3.618 1.524c-3.385 0-5.297-2.69-4.758-6.278L101.02 32.3c.449-3.252 3.686-6.279 7.182-6.279a5.461 5.461 0 014.196 1.883 5.442 5.442 0 011.263 4.418l-.97 6.56H107.4l.97-6.42a.852.852 0 00-.236-.71.853.853 0 00-.703-.255 1.232 1.232 0 00-1.207.964l-3.012 20.445a.857.857 0 00.898.96 1.272 1.272 0 001.243-.96l.772-5.422h-1.064l.705-4.655h6.522l-2.289 15.682zm20.065-32.108c2.581 0 5.432 1.762 4.826 5.856l-1.037 7.175c-.234 1.525-1.275 2.691-2.783 3.534 1.243.843 2.047 2.005 1.845 3.534l-.975 6.628a27.42 27.42 0 00-.134 5.381h-5.198a17.738 17.738 0 01.067-4.977l1.001-6.727c.103-.682-.197-1.242-.934-1.242h-.704l-1.904 12.946h-5.359l4.726-32.108h6.563zm-2.478 13.843c.57 0 .974-.359 1.105-1.282l.808-5.58c.13-.923-.135-1.286-.705-1.286h-.772l-1.208 8.148h.772zm26.781-8.547h-5.194l-1.073 7.305h3.421l-.84 5.7h-3.425l-1.207 8.108h5.202l-.852 5.7h-10.54l4.727-32.11h10.553l-.772 5.297zm18.521 0h-5.194l-1.073 7.305h3.416l-.839 5.7h-3.416l-1.208 8.108h5.194l-.835 5.7H158.38l4.722-32.11h10.553l-.767 5.297zm17.91-5.296h4.489l-4.713 32.108h-4.691l-2.11-16.337-2.401 16.337h-4.489l4.713-32.108h4.888l1.877 16.637 2.437-16.637zm34.452 16.494l4.287-16.494h4.857l-8.875 32.108h-4.291l.449-14.35-3.798 14.35h-4.524l.606-32.108h5.292l-.772 16.494 4.04-16.494h3.551l-.822 16.494zm23.454 9.31c-.449 3.25-3.788 6.726-7.339 6.726-3.551 0-5.862-3.453-5.36-6.727l2.9-19.48c.467-3.274 3.784-6.727 7.335-6.727s5.862 3.453 5.36 6.727l-2.846 19.503-.05-.023zm-2.415-19.732a.851.851 0 00-.897-.964 1.225 1.225 0 00-1.177.95l-2.967 19.996a.855.855 0 00.219.696.853.853 0 00.679.268 1.222 1.222 0 001.212-.964l2.918-19.987.013.005zm21.569-6.072c2.581 0 5.427 1.762 4.826 5.856l-1.042 7.193c-.233 1.525-1.27 2.691-2.778 3.534 1.239.843 2.042 2.005 1.84 3.534l-.97 6.61a27.115 27.115 0 00-.134 5.381h-5.185a17.7 17.7 0 01.068-4.977l1.005-6.727c.103-.682-.202-1.242-.938-1.242h-.705l-1.917 12.946h-5.359l4.704-32.108h6.585zm-2.478 13.843c.57 0 .97-.359 1.105-1.282l.803-5.58c.135-.923-.135-1.286-.705-1.286h-.767l-1.208 8.148h.772zm25.362-13.843h5.127l-5.598 14.727 1.441 17.381h-5.36l-.449-11.722-1.643 4.094-1.14 7.624h-5.386l4.699-32.104h5.387l-2.146 14.489 5.068-14.49zm21.551 24.682c-.606 4.094-3.591 7.825-7.671 7.825-4.081 0-6.469-3.049-5.997-6.278l.637-4.296h5.023l-.449 3.014c-.17 1.202.301 2.085 1.347 2.085s1.576-.682 1.795-2.085c.4-2.65-.74-4.817-2.648-7.588-2.011-2.888-3.142-6.278-2.581-9.915.592-4.395 3.515-7.848 7.797-7.848a5.387 5.387 0 015.387 6.3l-.633 4.297h-5.055l.508-3.252c.166-1.125-.27-1.847-1.006-1.847s-1.508.722-1.643 1.848c-.368 2.408.068 3.21 2.213 6.982 1.706 3.009 3.685 6.184 3.012 10.763l-.036-.005z" fill="#000"/><path stroke="#fff" stroke-opacity=".5" stroke-width="2" d="M62 5h217"/><path d="M7.876 5.997H6.732c-.066 1.43-.66 2.277-2.31 2.277-1.881 0-2.673-1.408-2.673-3.432s.792-3.399 2.673-3.399c1.023 0 2.013.33 2.222 1.716h1.122C7.403 1.454 6.49.585 4.422.585 1.21.585.627 2.994.627 4.842c0 1.848.671 4.29 3.795 4.29 2.783 0 3.256-1.584 3.454-3.135zm1.259-1.155c0 1.749.803 4.29 3.927 4.29 3.102 0 3.927-2.541 3.927-4.29S16.164.585 13.062.585c-3.102 0-3.927 2.508-3.927 4.257zm3.927-3.399c1.88 0 2.805 1.375 2.805 3.399s-.924 3.432-2.805 3.432c-1.881 0-2.805-1.408-2.805-3.432s.924-3.399 2.805-3.399zM22.886 9l2.42-7.073V9h.957V.717h-1.452l-2.244 6.6-2.244-6.6h-1.485V9h.924V1.927L22.182 9h.704zm5.824 0h.99V.717h-.99V9zm10.016 0V.717h-.99v6.666L33.226.717h-1.089V9h.99V2.323L37.648 9h1.078zm9.705-4.191h-3.53v.902h2.507c-.099 1.562-1.265 2.563-2.87 2.563-1.882 0-2.806-1.408-2.806-3.432s.924-3.399 2.937-3.399c1.42 0 2.343.66 2.453 2.145h1.155C48.002 1.85 46.88.585 44.67.585c-3.344 0-4.092 2.409-4.092 4.257 0 1.848.836 4.29 3.96 4.29 1.76 0 2.64-.891 2.937-1.771V9h.957V4.809zM292.705 5.997h-.99c.066 1.122.429 3.135 3.377 3.135 1.617 0 3.025-.704 3.025-2.442 0-3.146-5.016-2.123-5.016-4.004 0-1.023.825-1.243 1.76-1.243 1.837 0 1.936 1.023 1.969 1.694h1.056c-.066-.66-.374-2.552-2.959-2.552-2.2 0-2.882 1.155-2.882 2.233 0 2.948 5.049 1.628 5.049 4.037 0 .935-.979 1.386-2.002 1.386-1.683 0-2.321-.858-2.387-2.244zm6.669-1.155c0 1.749.803 4.29 3.927 4.29 3.102 0 3.927-2.541 3.927-4.29s-.825-4.257-3.927-4.257c-3.102 0-3.927 2.508-3.927 4.257zm3.927-3.399c1.881 0 2.805 1.375 2.805 3.399s-.924 3.432-2.805 3.432c-1.881 0-2.805-1.408-2.805-3.432s.924-3.399 2.805-3.399zm5.182 3.399c0 1.749.803 4.29 3.927 4.29 3.102 0 3.927-2.541 3.927-4.29S315.512.585 312.41.585c-3.102 0-3.927 2.508-3.927 4.257zm3.927-3.399c1.881 0 2.805 1.375 2.805 3.399s-.924 3.432-2.805 3.432c-1.881 0-2.805-1.408-2.805-3.432s.924-3.399 2.805-3.399zM324.776 9V.717h-.99v6.666l-4.51-6.666h-1.089V9h.99V2.323L323.698 9h1.078z" fill="#fff"/></svg>