<svg width="326" height="87" fill="none" xmlns="http://www.w3.org/2000/svg"><path d="M20.262 26.413c2.577 0 5.216 1.762 4.615 5.83l-.938 6.367a4.773 4.773 0 01-2.572 3.534 3.297 3.297 0 011.548 3.53l-1.014 6.923c-.602 4.086-3.775 5.83-6.352 5.83H9l4.713-32.014h6.55zm-4.345 26.386c.57 0 .97-.359 1.136-1.282l.736-5.167c.135-.919-.135-1.278-.7-1.278h-.768L15.186 52.8h.731zm2.007-13.413c.57 0 .97-.363 1.068-1.242l.705-4.767c.135-.897-.135-1.278-.705-1.278h-.767l-1.069 7.287h.768zm18.058 13.427h5.158l-.835 5.7H29.752l4.722-32.11h5.387l-3.879 26.41zm17.273-.355a.846.846 0 00.898.965 1.226 1.226 0 001.212-.965l3.82-26.054h4.938L60.236 52.61c-.45 3.251-3.313 6.278-6.832 6.278-3.52 0-5.764-3.05-5.293-6.278l3.838-26.207h5.158l-3.852 26.054zM82.362 31.7h-5.189L76.1 39.005h3.416l-.84 5.7H75.26l-1.208 8.108h5.194l-.835 5.7H67.858l4.722-32.11h10.553l-.772 5.297zM110 58.512h-3.214l-.377-1.12a5.726 5.726 0 01-3.618 1.524c-3.385 0-5.297-2.69-4.758-6.278L101.02 32.3c.449-3.252 3.686-6.279 7.182-6.279a5.461 5.461 0 014.196 1.883 5.442 5.442 0 011.263 4.418l-.97 6.56H107.4l.97-6.42a.852.852 0 00-.236-.71.853.853 0 00-.703-.255 1.232 1.232 0 00-1.207.964l-3.012 20.445a.857.857 0 00.898.96 1.272 1.272 0 001.243-.96l.772-5.422h-1.064l.705-4.655h6.522l-2.289 15.682zm20.065-32.108c2.581 0 5.432 1.762 4.826 5.856l-1.037 7.175c-.234 1.525-1.275 2.691-2.783 3.534 1.243.843 2.047 2.005 1.845 3.534l-.975 6.628a27.42 27.42 0 00-.134 5.381h-5.198a17.738 17.738 0 01.067-4.977l1.001-6.727c.103-.682-.197-1.242-.934-1.242h-.704l-1.904 12.946h-5.359l4.726-32.108h6.563zm-2.478 13.843c.57 0 .974-.359 1.105-1.282l.808-5.58c.13-.923-.135-1.286-.705-1.286h-.772l-1.208 8.148h.772zm26.781-8.547h-5.194l-1.073 7.305h3.421l-.84 5.7h-3.425l-1.207 8.108h5.202l-.852 5.7h-10.54l4.727-32.11h10.553l-.772 5.297zm18.521 0h-5.194l-1.073 7.305h3.416l-.839 5.7h-3.416l-1.208 8.108h5.194l-.835 5.7H158.38l4.722-32.11h10.553l-.767 5.297zm17.91-5.296h4.489l-4.713 32.108h-4.691l-2.11-16.337-2.401 16.337h-4.489l4.713-32.108h4.888l1.877 16.637 2.437-16.637zm34.452 16.494l4.287-16.494h4.857l-8.875 32.108h-4.291l.449-14.35-3.798 14.35h-4.524l.606-32.108h5.292l-.772 16.494 4.04-16.494h3.551l-.822 16.494zm23.454 9.31c-.449 3.25-3.788 6.726-7.339 6.726-3.551 0-5.862-3.453-5.36-6.727l2.9-19.48c.467-3.274 3.784-6.727 7.335-6.727s5.862 3.453 5.36 6.727l-2.846 19.503-.05-.023zm-2.415-19.732a.851.851 0 00-.897-.964 1.225 1.225 0 00-1.177.95l-2.967 19.996a.855.855 0 00.219.696.853.853 0 00.679.268 1.222 1.222 0 001.212-.964l2.918-19.987.013.005zm21.569-6.072c2.581 0 5.427 1.762 4.826 5.856l-1.042 7.193c-.233 1.525-1.27 2.691-2.778 3.534 1.239.843 2.042 2.005 1.84 3.534l-.97 6.61a27.115 27.115 0 00-.134 5.381h-5.185a17.7 17.7 0 01.068-4.977l1.005-6.727c.103-.682-.202-1.242-.938-1.242h-.705l-1.917 12.946h-5.359l4.704-32.108h6.585zm-2.478 13.843c.57 0 .97-.359 1.105-1.282l.803-5.58c.135-.923-.135-1.286-.705-1.286h-.767l-1.208 8.148h.772zm25.362-13.843h5.127l-5.598 14.727 1.441 17.381h-5.36l-.449-11.722-1.643 4.094-1.14 7.624h-5.386l4.699-32.104h5.387l-2.146 14.489 5.068-14.49zm21.551 24.682c-.606 4.094-3.591 7.825-7.671 7.825-4.081 0-6.469-3.049-5.997-6.278l.637-4.296h5.023l-.449 3.014c-.17 1.202.301 2.085 1.347 2.085s1.576-.682 1.795-2.085c.4-2.65-.74-4.817-2.648-7.588-2.011-2.888-3.142-6.278-2.581-9.915.592-4.395 3.515-7.848 7.797-7.848a5.387 5.387 0 015.387 6.3l-.633 4.297h-5.055l.508-3.252c.166-1.125-.27-1.847-1.006-1.847s-1.508.722-1.643 1.848c-.368 2.408.068 3.21 2.213 6.982 1.706 3.009 3.685 6.184 3.012 10.763l-.036-.005zM124.045 72.9h-1.643c-.403.007-.807-.01-1.208-.05h-.188v.65h.166c1.701 0 1.701 0 1.701 1.346v4.215a.67.67 0 000 .09v1.121c0 .413 0 .749.022 1.01v.6c-1.463-1.933-2.518-3.229-3.164-4.036-.31-.381-.557-.686-.615-.771a6.57 6.57 0 00-.867-1.162c-.525-.663-1.315-1.66-2.329-2.978l-.054-.071h-.09c-.705.049-1.239.049-1.629.049h-1.473c-.309 0-.628 0-.983-.031h-.184v.627h.548c.754 0 1.077.09 1.347.601v7.26c.002.038.002.076 0 .113v2.865c0 1.211-.14 1.346-1.491 1.346h-.377v.587h.175a71.08 71.08 0 012.088-.05c.52 0 1.212 0 2.051.05h.175v-.636h-.449c-1.167 0-1.459-.117-1.459-1.023V74.935c3.219 3.968 5.351 6.726 8.264 10.552l.786 1.026h.417v-.157c0-.161 0-.282.027-.358.027-.077 0-.103 0-.121v-4.023a1.623 1.623 0 000-.197 3.381 3.381 0 010-.319V74.616c0-1.108 0-1.108 1.715-1.126h.166v-.623h-.18c-.498.032-.947.032-1.265.032zm12.797 10.144c-.049 1.112-.112 1.865-.52 2.152-.193.135-.898.449-3.273.449h-.83c-1.576 0-1.576 0-1.576-.71V82.245c0-.394-.022-.928-.022-1.614v-.798h.529c2.546.058 3.003.071 3.003 1.73v.31h.53v-.619c0-.65-.022-1.206-.022-1.66 0-.452 0-1.004.022-1.654v-.619h-.489v.166c0 1.471-.31 1.767-1.836 1.767h-.633c-.238 0-.561.036-.974.036h-.103v-.058a.755.755 0 000-.068c0-.448 0-.762-.027-.955V73.93c0-.448 0-.448.556-.448 3.704 0 4.368.148 4.413 2.013v.161h.521v-2.628l-.288-.134h-9.745v.579h.166c1.589 0 1.715.08 1.715 1.094v9.53c0 1.43-.032 1.538-1.49 1.538h-.391v.578h8.385c.135.009.27.009.404 0a2.15 2.15 0 01.296 0h2.011l.158-3.34h-.53l.04.17zM153.5 72.898h-1.4c-.35 0-.754 0-1.181-.032h-.179v.628h.583c.938 0 1.006.121 1.006.314a35.192 35.192 0 01-1.248 3.556c-.512 1.372-1.145 3.054-1.903 5.144a567.433 567.433 0 01-2.151-6.104c.229-.556.395-1.017.535-1.39.449-1.26.556-1.52 1.427-1.52h.844v-.619h-.175c-.898.036-1.827.036-2.725.036h-5.62c-1.198 0-2.558 0-4.161-.036h-.175v.614h.687c.691 0 .835.117 1.086.87.215.65.449 1.171.584 1.516.076.193.161.39.17.449.193.706.43 1.4.709 2.076.584 1.619 1.563 4.323 2.824 8.027l.04.112h.449l1.275-3.587c.449-1.319.79-2.243.97-2.736.731 2.036 1.485 4.135 2.195 6.23l.04.116h.449l.04-.112c.898-2.422 1.5-4.14 1.863-5.162.22-.619.368-1.027.4-1.099.287-.681.534-1.399.776-2.094.189-.556.373-1.08.557-1.534.224-.551.39-1.035.521-1.421.39-1.166.538-1.601 1.517-1.601h.758v-.628h-.179c-.418-.013-.835-.013-1.208-.013zm-6.113.74a5.481 5.481 0 01-.315.896 42.34 42.34 0 00-.359.951c-.305-.897-.574-1.717-.579-1.839-.004-.12 0-.179.229-.179h.709c.315.01.315.067.315.17zm-2.878 3.067c.256.735.552 1.596.898 2.574-.054.197-.377 1.18-1.131 3.184-.732-2.166-1.347-3.928-1.796-5.292-.678-1.973-1.131-3.273-1.135-3.448-.005-.175 0-.247.538-.247h1.347c.193.09.673 1.475 1.279 3.229zm27.297-3.852h-.18c-.48.031-.897.031-1.306.031h-1.414c-.381 0-.808 0-1.288-.031h-.18v.619h.485c1.024 0 1.14.044 1.14.327a31.9 31.9 0 01-1.346 3.386c-.378.897-.831 1.955-1.347 3.197-1.67-3.906-2.77-6.466-2.801-6.727-.032-.26.399-.21 1.315-.21h.171v-.62h-.18c-.687.037-1.297.037-1.84.037h-1.998c-.53 0-1.136 0-1.822-.036h-.175v.619h.686c.871 0 .961.053 1.226.74.305.78.619 1.547.969 2.354.315.717.63 1.451.948 2.202.372.897.754 1.794 1.162 2.69a1.933 1.933 0 000 .216v3.264c0 .678-.031.696-1.077.696h-.898v.583h.175c1.468-.032 2.474-.032 3.075-.032.602 0 1.621 0 3.088.032h.171v-.547h-.615c-1.261 0-1.261 0-1.261-.866v-3.695c.992-2.314 1.598-3.763 1.849-4.36l.036-.084c.166-.382.305-.718.449-1.018.776-1.857.898-2.144 1.975-2.144h.808v-.623zm6.226-.247c-3.955 0-6.823 3.01-6.823 7.175a7.268 7.268 0 002.653 5.498 7.023 7.023 0 003.963 1.233c3.776 0 6.734-3.103 6.734-7.058.004-4.04-2.68-6.848-6.527-6.848zm-.121.579c2.316 0 3.757 2.242 3.757 5.83 0 4.444-1.347 6.892-3.775 6.892-2.141 0-3.757-2.3-3.757-5.359 0-4.964 1.234-7.363 3.775-7.363zm18.377 12.596c-.673 0-.934-.35-1.167-1.551-.058-.328-.103-.632-.148-.924-.171-1.148-.319-2.139-1.149-3.112a4.19 4.19 0 00-2.007-1.085c2.245-.413 3.241-1.848 3.241-3.211 0-1.794-1.76-3.018-3.335-3.018h-1.347c-.22 0-.525 0-.898.031-.956.04-2.365.099-4.412.04h-.373v.583h.395c1.491 0 1.491.09 1.491 1.574v3.637c0 .157.027.395.027.7 0 .206 0 .386-.023.534-.022.148 0 .215 0 .295v2.897c-.005.1-.005.2 0 .301v.552c0 1.515-.036 1.627-1.477 1.627h-.408v.583h1.118c.866 0 1.566-.022 2.091-.022.526 0 1.643 0 3.25.031h.171v-.6h-.808c-1.163 0-1.266-.13-1.266-1.539v-1.471a1.41 1.41 0 010-.183c.013-.106.021-.212.022-.319v-2.296a1.745 1.745 0 010-.229.97.97 0 000-.152v-.162h.189c.965 0 1.571.144 2.204.924.383.546.599 1.19.624 1.857.022.166.04.323.067.448.027.126.036.256.05.408a3.576 3.576 0 001.203 2.646c.68.502 1.506.77 2.352.763a4.32 4.32 0 001.692-.341l.103-.045v-.615l-.242.108c-.379.205-.8.32-1.23.337zm-7.074-8.12a.378.378 0 010-.068v-3.7c0-.48 0-.52.642-.52 1.795 0 2.823.991 2.823 2.718 0 1.865-.853 2.663-2.855 2.663h-.61v-1.094zm22.789 7.981c-.713 0-.866-.107-1.149-.448l-.574-.695-.97-1.162a251.52 251.52 0 01-2.002-2.394l-2.37-2.852c-.054-.063-.13-.157-.13-.202 0-.045.027-.058.117-.135l1.571-1.417a31.72 31.72 0 001.176-1.103l1.037-.969c.686-.636.965-.784 2.136-.784h.602v-.646h-.184c-.566.05-1.055.05-1.49.05h-1.783c-.437.006-.875-.01-1.31-.05h-.189v.646h.75c.781 0 .978.035.978.183a.856.856 0 01-.327.503l-1.553 1.448c-.404.372-.696.633-.898.794l-.211.188-2.245 2.059v-1.242c0-.22 0-.476-.027-.633v-2.076c0-1.22 0-1.22 1.459-1.233h.341v-.646h-.184c-.632.05-1.225.05-1.75.05h-2.42c-.547 0-1.167 0-1.836-.05h-.184v.632h.674c1.153 0 1.248 0 1.248.937v9.436c0 1.623-.041 1.794-1.181 1.794h-.741v.596h.175c1.518-.031 2.528-.031 3.071-.031.543 0 1.539 0 2.953.031h.175v-.578h-.57c-1.019 0-1.212-.148-1.212-.938a1.18 1.18 0 000-.237V79.733l1.208 1.44 1.409 1.695a30.585 30.585 0 012.182 2.722 1.617 1.617 0 01-.525.04h-.741v.583h.175c1.248-.031 2.177-.05 2.846-.05.476 0 1.347 0 2.622.05h.193v-.57h-.342z" fill="#000"/><path stroke="#fff" stroke-opacity=".5" stroke-width="2" d="M62 5h217"/><path d="M7.876 5.997H6.732c-.066 1.43-.66 2.277-2.31 2.277-1.881 0-2.673-1.408-2.673-3.432s.792-3.399 2.673-3.399c1.023 0 2.013.33 2.222 1.716h1.122C7.403 1.454 6.49.585 4.422.585 1.21.585.627 2.994.627 4.842c0 1.848.671 4.29 3.795 4.29 2.783 0 3.256-1.584 3.454-3.135zm1.259-1.155c0 1.749.803 4.29 3.927 4.29 3.102 0 3.927-2.541 3.927-4.29S16.164.585 13.062.585c-3.102 0-3.927 2.508-3.927 4.257zm3.927-3.399c1.88 0 2.805 1.375 2.805 3.399s-.924 3.432-2.805 3.432c-1.881 0-2.805-1.408-2.805-3.432s.924-3.399 2.805-3.399zM22.886 9l2.42-7.073V9h.957V.717h-1.452l-2.244 6.6-2.244-6.6h-1.485V9h.924V1.927L22.182 9h.704zm5.824 0h.99V.717h-.99V9zm10.016 0V.717h-.99v6.666L33.226.717h-1.089V9h.99V2.323L37.648 9h1.078zm9.705-4.191h-3.53v.902h2.507c-.099 1.562-1.265 2.563-2.87 2.563-1.882 0-2.806-1.408-2.806-3.432s.924-3.399 2.937-3.399c1.42 0 2.343.66 2.453 2.145h1.155C48.002 1.85 46.88.585 44.67.585c-3.344 0-4.092 2.409-4.092 4.257 0 1.848.836 4.29 3.96 4.29 1.76 0 2.64-.891 2.937-1.771V9h.957V4.809zM292.705 5.997h-.99c.066 1.122.429 3.135 3.377 3.135 1.617 0 3.025-.704 3.025-2.442 0-3.146-5.016-2.123-5.016-4.004 0-1.023.825-1.243 1.76-1.243 1.837 0 1.936 1.023 1.969 1.694h1.056c-.066-.66-.374-2.552-2.959-2.552-2.2 0-2.882 1.155-2.882 2.233 0 2.948 5.049 1.628 5.049 4.037 0 .935-.979 1.386-2.002 1.386-1.683 0-2.321-.858-2.387-2.244zm6.669-1.155c0 1.749.803 4.29 3.927 4.29 3.102 0 3.927-2.541 3.927-4.29s-.825-4.257-3.927-4.257c-3.102 0-3.927 2.508-3.927 4.257zm3.927-3.399c1.881 0 2.805 1.375 2.805 3.399s-.924 3.432-2.805 3.432c-1.881 0-2.805-1.408-2.805-3.432s.924-3.399 2.805-3.399zm5.182 3.399c0 1.749.803 4.29 3.927 4.29 3.102 0 3.927-2.541 3.927-4.29S315.512.585 312.41.585c-3.102 0-3.927 2.508-3.927 4.257zm3.927-3.399c1.881 0 2.805 1.375 2.805 3.399s-.924 3.432-2.805 3.432c-1.881 0-2.805-1.408-2.805-3.432s.924-3.399 2.805-3.399zM324.776 9V.717h-.99v6.666l-4.51-6.666h-1.089V9h.99V2.323L323.698 9h1.078z" fill="#fff"/></svg>