<svg width="613" height="67" fill="none" xmlns="http://www.w3.org/2000/svg"><path d="M22.525 1.825c5.153 0 10.432 3.525 9.23 11.66L29.877 26.22a9.546 9.546 0 01-5.145 7.067 6.594 6.594 0 013.098 7.059L25.8 54.195c-1.202 8.17-7.55 11.66-12.703 11.66H0l9.427-64.03h13.098zm-8.69 52.773c1.14 0 1.939-.717 2.271-2.565l1.472-10.332c.27-1.839-.269-2.556-1.4-2.556h-1.535L12.37 54.598h1.464zm4.013-26.826c1.14 0 1.939-.726 2.136-2.484l1.41-9.534c.27-1.794-.27-2.556-1.41-2.556H18.45l-2.137 14.574h1.536zm36.117 26.853H64.28l-1.67 11.4H41.504l9.444-64.218h10.774l-7.757 52.818zm34.546-.708a1.695 1.695 0 001.796 1.928 2.453 2.453 0 002.424-1.928l7.64-52.11h9.875l-7.775 52.415c-.897 6.502-6.625 12.556-13.664 12.556-7.038 0-11.527-6.099-10.584-12.556l7.675-52.415h10.316l-7.703 52.11zm58.211-41.518h-10.378l-2.146 14.61h6.833l-1.679 11.4h-6.832l-2.415 16.216h10.387l-1.67 11.4h-21.107l9.445-64.218h21.107L146.722 12.4zm55.276 53.626h-6.428l-.754-2.243a11.455 11.455 0 01-7.236 3.05c-6.769 0-10.594-5.381-9.517-12.557l5.98-40.674c.897-6.502 7.37-12.556 14.364-12.556a10.914 10.914 0 018.391 3.765 10.888 10.888 0 012.526 8.836l-1.939 13.122H196.8l1.939-12.844a1.717 1.717 0 00-.47-1.418 1.716 1.716 0 00-1.406-.51 2.463 2.463 0 00-2.415 1.928l-6.024 40.89a1.714 1.714 0 001.795 1.919 2.542 2.542 0 002.487-1.92l1.544-10.843h-2.127l1.409-9.31h13.045l-4.579 31.365zm40.13-64.218c5.162 0 10.863 3.525 9.651 11.713l-2.074 14.35c-.466 3.05-2.549 5.382-5.566 7.068 2.487 1.686 4.094 4.01 3.69 7.068l-1.948 13.256a54.764 54.764 0 00-.269 10.763h-10.397a35.475 35.475 0 01.135-9.956l2.002-13.453c.207-1.364-.395-2.485-1.867-2.485h-1.41l-3.806 25.894h-10.72l9.454-64.218h13.125zm-4.955 27.687c1.14 0 1.948-.717 2.208-2.565l1.616-11.157c.26-1.848-.269-2.574-1.409-2.574h-1.545l-2.415 16.296h1.545zm53.56-17.095h-10.387l-2.145 14.61h6.841l-1.679 11.4h-6.85l-2.415 16.216h10.405l-1.706 11.4h-21.079l9.453-64.218h21.107L290.733 12.4zm37.042 0h-10.387l-2.145 14.61h6.832l-1.679 11.4h-6.832l-2.415 16.216h10.387l-1.67 11.4H298.76l9.444-64.218h21.107L327.775 12.4zm35.821-10.592h8.978l-9.427 64.218h-9.381l-4.22-32.674-4.803 32.674h-8.977l9.426-64.218h9.777l3.752 33.275 4.875-33.275zM432.5 34.795l8.574-32.988h9.714l-17.749 64.218h-8.583l.898-28.7-7.595 28.7h-9.05l1.212-64.218h10.585l-1.544 32.988 8.08-32.988h7.101L432.5 34.795zm46.909 18.62c-.898 6.502-7.578 13.453-14.679 13.453s-11.725-6.906-10.719-13.454l5.799-38.96C460.744 7.905 467.378 1 474.48 1c7.101 0 11.725 6.906 10.719 13.453l-5.692 39.006-.098-.045zm-4.83-39.464a1.695 1.695 0 00-1.796-1.928 2.455 2.455 0 00-2.352 1.901l-5.934 39.993a1.698 1.698 0 001.795 1.928 2.436 2.436 0 002.424-1.928l5.836-39.975.027.009zm43.137-12.144c5.163 0 10.854 3.525 9.651 11.713l-2.082 14.387c-.467 3.05-2.541 5.381-5.558 7.067 2.478 1.686 4.085 4.01 3.681 7.068l-1.939 13.22a54.154 54.154 0 00-.269 10.763h-10.37a35.475 35.475 0 01.135-9.956l2.011-13.453c.207-1.364-.404-2.485-1.876-2.485h-1.41l-3.833 25.894h-10.72l9.409-64.218h13.17zm-4.955 27.687c1.14 0 1.939-.717 2.208-2.565l1.607-11.157c.27-1.848-.269-2.574-1.409-2.574h-1.535l-2.415 16.296h1.544zm50.724-27.687h10.252l-11.195 29.454 2.882 34.764h-10.72l-.897-23.445-3.286 8.189-2.281 15.247h-10.773l9.4-64.209h10.773l-4.291 28.979 10.136-28.979zm43.101 49.365c-1.212 8.189-7.182 15.65-15.342 15.65-8.161 0-12.937-6.098-11.995-12.556l1.275-8.592h10.046l-.897 6.027c-.342 2.404.601 4.17 2.693 4.17s3.151-1.362 3.591-4.17c.799-5.3-1.481-9.632-5.297-15.175-4.022-5.776-6.284-12.557-5.162-19.83C586.683 7.905 592.527 1 601.092 1a10.782 10.782 0 018.351 3.772 10.76 10.76 0 012.422 8.83l-1.265 8.591h-10.109l1.014-6.502c.332-2.251-.539-3.695-2.011-3.695s-3.016 1.444-3.286 3.695c-.736 4.816.135 6.422 4.426 13.965 3.412 6.018 7.371 12.368 6.024 21.525l-.072-.009z" fill="#000"/></svg>